# xmcd
#
# Track frame offsets: 
#        150
#        16764
#        28554
#        41792
#        52664
#
# Disc length: 1122 seconds
#
# Revision: 0
# Processed by: cddbd v1.5.2PL0 Copyright (c) Steve Scherf et al.
# Submitted via: ExactAudioCopy v0.95b3
#
DISCID=2e046005
DTITLE=Generichrist - Mindumpster
DYEAR=2010
DGENRE=Thrash Metal
TTITLE0=Intro - Hexx
TTITLE1=My Lovely Whore
TTITLE2=Mindumpster
TTITLE3=Clothes Hanger Abortion
TTITLE4=Sonic Casket
EXTD=
EXTT0=
EXTT1=
EXTT2=
EXTT3=
EXTT4=
PLAYORDER=
